<svg width="66" height="80" viewBox="0 0 66 80" fill="none" xmlns="http://www.w3.org/2000/svg">
<path d="M34.717 75.5H5.768C5.221 75.5 4.776 75.051 4.776 74.5V5.5C4.776 4.949 5.221 4.5 5.768 4.5H34.717C35.821 4.5 36.717 3.604 36.717 2.5C36.717 1.396 35.821 0.5 34.717 0.5H5.768C3.015 0.5 0.776001 2.743 0.776001 5.5V74.5C0.776001 77.257 3.015 79.5 5.768 79.5H34.717C35.821 79.5 36.717 78.604 36.717 77.5C36.717 76.396 35.821 75.5 34.717 75.5ZM64.639 38.586L47.49 21.438C46.709 20.657 45.443 20.657 44.662 21.438C43.881 22.219 43.881 23.485 44.662 24.266L58.396 38H19.4C18.296 38 17.4 38.896 17.4 40C17.4 41.104 18.296 42 19.4 42H58.396L44.662 55.733C43.881 56.514 43.881 57.78 44.662 58.561C45.053 58.952 45.564 59.147 46.076 59.147C46.588 59.147 47.099 58.952 47.49 58.561L64.638 41.414C65.013 41.039 65.224 40.53 65.224 40C65.224 39.47 65.014 38.961 64.639 38.586Z" fill="black"/>
</svg>
